<?xml version="1.0" encoding="utf-8"?>
<!-- Generator: Adobe Illustrator 16.0.4, SVG Export Plug-In . SVG Version: 6.00 Build 0)  -->
<!DOCTYPE svg PUBLIC "-//W3C//DTD SVG 1.1//EN" "http://www.w3.org/Graphics/SVG/1.1/DTD/svg11.dtd">
<svg version="1.1" id="Layer_1" xmlns="http://www.w3.org/2000/svg" xmlns:xlink="http://www.w3.org/1999/xlink" x="0px" y="0px"
	 width="188px" height="35px" viewBox="0.065 0 188 35" enable-background="new 0.065 0 188 35" xml:space="preserve">
<g>
	<g>
		<polyline fill="#FFFFFF" points="109.173,9.689 109.173,5.92 95.739,5.92 95.739,25.298 109.173,25.298 109.173,21.366 
			101.184,21.366 101.184,17.073 107.828,17.073 107.828,13.312 101.184,13.312 101.184,9.689 109.173,9.689 		"/>
		<polyline fill="#FFFFFF" points="132.872,21.474 124.475,21.474 124.475,5.92 118.969,5.92 118.969,25.298 132.872,25.298 
			132.872,21.474 		"/>
		<path fill="#FFFFFF" d="M177.219,13.306c-3.717-0.839-5.019-0.933-5.019-2.412c0-1.375,1.835-1.8,2.9-1.8
			c1.718,0,3.735,0.398,5.795,1.459l1.499-3.567c-2.108-1.154-4.819-1.631-7.429-1.631c-5.127,0-8.564,2.078-8.705,6.131
			c-0.15,3.692,2.855,5.077,5.619,5.65c2.664,0.549,5.363,1.02,5.418,2.602c0.051,1.46-1.263,2.083-3.737,2.083
			c-2.295,0-4.425-0.736-6.604-1.647l-1.271,3.874c2.503,1.064,5.046,1.651,7.667,1.651c3.641,0,6.295-0.565,8.25-2.402
			c1.359-1.261,1.802-2.785,1.802-4.233C183.406,15.998,181.501,14.271,177.219,13.306"/>
		<polyline fill="#FFFFFF" points="87.929,9.746 87.929,5.92 71.027,5.92 71.027,9.746 76.738,9.746 76.738,25.298 82.212,25.298 
			82.212,9.746 87.929,9.746 		"/>
		<path fill="#FFFFFF" d="M151.654,5.92v12.312c0,0.965,0,1.232-0.062,1.604c-0.172,1.173-1.312,1.854-3.127,1.88
			c-1.345-0.025-2.326-0.418-2.785-1.12c-0.23-0.363-0.341-1.01-0.341-2.044V5.92h-5.71v13.357c0,1.845,0.248,2.683,1.08,3.738
			c1.38,1.728,4.067,2.629,7.77,2.629c0.035,0,0.076,0,0.115,0c0.023,0,0.057,0,0.084,0c4.956,0,7.511-1.932,8.253-3.737
			c0.37-0.879,0.397-1.294,0.397-3.061V5.92H151.654"/>
		<g>
			<path fill="#FFFFFF" d="M73.608,0.613L41.582,6.99v2.23l0.104-0.022C62.84,4.056,73.607,0.961,73.694,0.939
				c0.119-0.031,0.162-0.124,0.145-0.203C73.824,0.654,73.737,0.589,73.608,0.613"/>
			<path fill="#FFFFFF" d="M46.73,2.397c0.495-0.318,0.637-0.123,0.492,0.239c-0.236,0.575-1.32,4.04-9.383,10.659
				c-2.104,1.725-3.601,2.694-6.628,4.485C36.171,10.826,43.413,4.551,46.73,2.397 M47.569,0.004
				c-1.557,0.087-4.438,2.393-6.02,3.764c-6.303,5.453-10.987,10.463-14.394,15.712c-7.102,3.802-16.154,7.709-25.146,10.768
				l-0.216,0.072l-1.729,4.655l0.988-0.379c5.718-2.178,15.263-6.271,23.915-10.82c-0.488,1.298-0.733,2.492-0.733,3.583
				c0,0.814,0.135,1.565,0.409,2.255c0.545,1.366,1.616,2.404,3.103,2.997c2.213,0.883,5.235,0.902,8.682-0.142
				c8.807-2.673,19.25-10.864,21.525-12.492l0.086-0.062c0.088-0.062,0.096-0.164,0.057-0.227c-0.049-0.076-0.152-0.094-0.24-0.045
				l0,0l0,0l-0.112,0.07c-2.441,1.458-14.299,8.502-22.007,10.569c-3.925,1.054-6.917,0.479-8.046-1.103
				c-0.393-0.537-0.581-1.222-0.581-2.019c0-1.556,0.73-3.528,2.14-5.729c1.297-0.739,2.506-1.462,3.598-2.146
				C40.368,15.062,49.032,6.851,49.4,1.833c0.002-0.034,0.002-0.073,0.002-0.112c0-0.433-0.188-0.879-0.515-1.21
				C48.535,0.154,48.072-0.029,47.569,0.004z"/>
		</g>
		<polyline fill="#FFFFFF" points="41.478,7.013 7.785,14.254 6.481,17.759 41.582,9.222 41.638,9.209 41.638,6.977 41.478,7.013 		
			"/>
	</g>
	<g>
		<path fill="#FFFFFF" d="M186.183,5.888c1.025,0,1.882,0.807,1.882,1.865c0,1.08-0.856,1.887-1.882,1.887
			c-1.028,0-1.891-0.809-1.891-1.887C184.292,6.694,185.155,5.888,186.183,5.888z M186.183,9.365c0.871,0,1.54-0.693,1.54-1.611
			c0-0.898-0.669-1.591-1.54-1.591c-0.878,0-1.55,0.693-1.55,1.591C184.633,8.672,185.305,9.365,186.183,9.365z M185.452,6.665
			h0.849c0.521,0,0.768,0.207,0.768,0.626c0,0.396-0.252,0.562-0.578,0.598l0.629,0.967h-0.369l-0.596-0.942h-0.36v0.942h-0.342
			V6.665L185.452,6.665z M185.793,7.638h0.354c0.303,0,0.578-0.016,0.578-0.361c0-0.291-0.252-0.336-0.482-0.336h-0.45V7.638
			L185.793,7.638z"/>
	</g>
</g>
</svg>
